<svg xmlns="http://www.w3.org/2000/svg" width="38" height="40" viewBox="0 0 38 40" fill="none">
  <path d="M0.798096 1.75846C-0.266032 1.75846 -0.266032 0.238281 0.798096 0.238281H6.87883L8.39901 7.99122L37.5865 10.4235L32.1139 27.1455H11.2874C10.2232 27.1455 9.46314 27.9056 9.46314 28.8177C9.46314 29.7298 10.3753 30.642 11.2874 30.642H31.5058C32.5699 30.642 32.5699 32.1621 31.5058 32.1621H11.2874C9.46314 32.1621 7.94296 30.642 7.94296 28.8177C7.94296 27.4496 8.85507 26.0814 10.3753 25.6253L5.51067 1.75846H0.798096ZM26.4892 33.2263C28.3134 33.2263 29.6816 34.5944 29.6816 36.4186C29.6816 38.2429 28.3134 39.7631 26.4892 39.7631C24.665 39.7631 23.1448 38.2429 23.1448 36.4186C23.1448 34.5944 24.665 33.2263 26.4892 33.2263ZM26.4892 34.7464C25.4251 34.7464 24.665 35.5065 24.665 36.4186C24.665 37.4828 25.4251 38.2429 26.4892 38.2429C27.4013 38.2429 28.1614 37.4828 28.1614 36.4186C28.1614 35.5065 27.4013 34.7464 26.4892 34.7464ZM13.7197 33.2263C15.5439 33.2263 17.0641 34.5944 17.0641 36.4186C17.0641 38.2429 15.5439 39.7631 13.7197 39.7631C12.0475 39.7631 10.5273 38.2429 10.5273 36.4186C10.5273 34.5944 12.0475 33.2263 13.7197 33.2263ZM13.7197 34.7464C12.8075 34.7464 12.0475 35.5065 12.0475 36.4186C12.0475 37.4828 12.8075 38.2429 13.7197 38.2429C14.7838 38.2429 15.5439 37.4828 15.5439 36.4186C15.5439 35.5065 14.7838 34.7464 13.7197 34.7464ZM8.70305 9.5114L11.8954 25.6253H31.0498L35.6103 11.7917L8.70305 9.5114Z" fill="black"/>
</svg>