<svg xmlns="http://www.w3.org/2000/svg" width="38" height="38" viewBox="0 0 38 38" fill="none">
  <path d="M28.8689 19.2812H9.13107C6.68798 19.2812 4.39547 20.2322 2.67781 21.9574C0.950984 23.6767 0 25.9692 0 28.4126C0 33.4478 4.09626 37.544 9.13107 37.544H24.2158C24.5861 37.544 24.8863 37.2439 24.8863 36.8736C24.8863 36.5034 24.5861 36.2032 24.2158 36.2032H9.13107C4.83544 36.2032 1.34087 32.7083 1.34087 28.4126C1.34087 26.3287 2.15174 24.3733 3.62584 22.9055C5.09209 21.433 7.04709 20.6221 9.13107 20.6221H28.8689C33.1646 20.6221 36.6591 24.117 36.6591 28.4126C36.6591 30.497 35.8483 32.4523 34.3742 33.9198C32.92 35.3802 30.9778 36.1911 28.905 36.2032C28.5347 36.2055 28.2362 36.5073 28.2385 36.8775C28.2407 37.2465 28.5403 37.544 28.9089 37.544H28.9128C31.3422 37.53 33.6189 36.579 35.3222 34.8679C37.049 33.1489 38 30.8564 38 28.4126C38 23.3775 33.9038 19.2812 28.8689 19.2812Z" fill="black"/>
  <path d="M18.9999 16.4594C23.5377 16.4594 27.2297 12.7677 27.2297 8.22984C27.2297 3.69197 23.5377 0 18.9999 0C14.462 0 10.77 3.69197 10.77 8.22984C10.77 12.7677 14.462 16.4594 18.9999 16.4594ZM18.9999 1.34087C22.7986 1.34087 25.8888 4.43116 25.8888 8.22984C25.8888 12.0282 22.7985 15.1185 18.9999 15.1185C15.2012 15.1185 12.1109 12.0282 12.1109 8.22984C12.1109 4.43115 15.2012 1.34087 18.9999 1.34087Z" fill="black"/>
</svg>