<svg xmlns="http://www.w3.org/2000/svg" width="34" height="34" viewBox="0 0 34 34" fill="none">
  <path d="M33.4333 9.21688e-08H0.566667C0.492239 -4.23679e-05 0.418533 0.0145859 0.349763 0.0430485C0.280992 0.0715111 0.218506 0.11325 0.165878 0.165878C0.11325 0.218506 0.0715111 0.280992 0.0430485 0.349763C0.0145859 0.418533 -4.23679e-05 0.492239 9.21688e-08 0.566667V33.4333C-4.23679e-05 33.5078 0.0145859 33.5815 0.0430485 33.6502C0.0715111 33.719 0.11325 33.7815 0.165878 33.8341C0.218506 33.8867 0.280992 33.9285 0.349763 33.957C0.418533 33.9854 0.492239 34 0.566667 34H33.4333C33.5078 34 33.5815 33.9854 33.6502 33.957C33.719 33.9285 33.7815 33.8867 33.8341 33.8341C33.8867 33.7815 33.9285 33.719 33.957 33.6502C33.9854 33.5815 34 33.5078 34 33.4333V0.566667C34 0.492239 33.9854 0.418533 33.957 0.349763C33.9285 0.280992 33.8867 0.218506 33.8341 0.165878C33.7815 0.11325 33.719 0.0715111 33.6502 0.0430485C33.5815 0.0145859 33.5078 -4.23679e-05 33.4333 9.21688e-08ZM1.13333 29.4931C1.34082 29.1983 1.54886 28.8991 1.74482 28.5912C3.17765 26.3926 4.40154 24.0647 5.40049 21.6379C5.52325 21.4047 5.68431 21.1936 5.87695 21.0137L8.50222 18.4338C8.64885 18.2898 8.84525 18.2076 9.05078 18.2042C9.25632 18.2009 9.45528 18.2767 9.60651 18.4159C9.75775 18.5551 9.8497 18.7471 9.86334 18.9523C9.87698 19.1574 9.81127 19.3599 9.6798 19.5179L8.16518 21.3385C7.94563 21.6039 7.7934 21.9184 7.72143 22.2552C7.64946 22.592 7.65988 22.9412 7.75181 23.2732L8.69256 26.4978C8.73468 26.642 8.83239 26.7637 8.96419 26.8359C9.09599 26.9081 9.25109 26.925 9.39536 26.8829C9.53963 26.8408 9.66126 26.7431 9.73349 26.6113C9.80573 26.4795 9.82264 26.3244 9.78052 26.1801L8.84142 22.9605C8.80033 22.8044 8.79722 22.6406 8.83236 22.483C8.8675 22.3254 8.93986 22.1785 9.0434 22.0546L10.5508 20.2428C10.7322 20.0228 10.8625 19.7653 10.9323 19.4888C10.9495 19.6002 10.9997 19.704 11.0763 19.7867C11.153 19.8694 11.2526 19.9273 11.3624 19.953C11.4722 19.9786 11.5871 19.9709 11.6925 19.9308C11.7979 19.8906 11.8888 19.8199 11.9537 19.7277L14.3709 16.2978L14.4044 16.2502L17.0033 12.5624C17.0817 12.4515 17.2009 12.3762 17.3348 12.3532C17.4011 12.3418 17.469 12.3435 17.5346 12.3583C17.6002 12.3732 17.6623 12.4008 17.7172 12.4396C17.7721 12.4784 17.8189 12.5276 17.8548 12.5845C17.8907 12.6414 17.9151 12.7048 17.9265 12.7711C17.9379 12.8374 17.9361 12.9053 17.9213 12.9709C17.9065 13.0365 17.8788 13.0985 17.84 13.1535L16.6091 14.895L16.6082 14.8961L12.9996 20.0104C12.913 20.1333 12.8787 20.2855 12.9044 20.4336C12.93 20.5817 13.0134 20.7135 13.1363 20.8001C13.2591 20.8867 13.4113 20.9209 13.5594 20.8953C13.7075 20.8697 13.8394 20.7863 13.9259 20.6634L17.534 15.5496C17.5729 15.4946 17.6223 15.4478 17.6793 15.4119C17.7363 15.3761 17.7999 15.3518 17.8663 15.3405C17.9327 15.3291 18.0007 15.331 18.0663 15.346C18.132 15.361 18.1941 15.3888 18.249 15.4278C18.3587 15.5066 18.4328 15.6255 18.4553 15.7587C18.4778 15.8918 18.4468 16.0285 18.3691 16.1389L17.3392 17.5982L14.9768 20.9462C14.9339 21.007 14.9035 21.0757 14.8871 21.1483C14.8708 21.2209 14.8689 21.296 14.8816 21.3693C14.8943 21.4427 14.9213 21.5128 14.9611 21.5757C15.0009 21.6386 15.0527 21.693 15.1135 21.7359C15.1743 21.7787 15.243 21.8092 15.3156 21.8256C15.3882 21.8419 15.4633 21.8438 15.5367 21.8311C15.61 21.8184 15.6801 21.7914 15.743 21.7516C15.8059 21.7118 15.8603 21.66 15.9032 21.5992L18.2656 18.2518C18.3063 18.1941 18.3584 18.1455 18.4187 18.1088C18.479 18.0721 18.5462 18.0483 18.6161 18.0387C18.686 18.0291 18.7571 18.034 18.8251 18.053C18.893 18.072 18.9563 18.1048 19.011 18.1494C19.1112 18.2316 19.1768 18.3485 19.1948 18.4768C19.2128 18.6052 19.182 18.7356 19.1084 18.8422C17.4112 21.2777 13.5568 26.8082 12.8717 27.7019C12.7023 27.8047 12.5635 27.9509 12.4694 28.1253C12.3582 28.2763 11.6642 28.9061 11.1064 29.4119C10.2929 30.1501 9.37045 30.9874 8.75952 31.6365C8.39977 32.0238 8.06637 32.4348 7.76154 32.8667H1.13333V29.4931ZM14.3858 14.3089L13.478 15.5972L11.0273 19.0746C11.0119 19.1026 10.999 19.1318 10.9888 19.162C11.0275 18.701 10.8977 18.2416 10.6237 17.8688C11.5277 16.5861 12.4329 15.3043 13.3394 14.0233L13.5535 13.7201C13.5932 13.6634 13.6442 13.6155 13.7032 13.5794C13.7623 13.5434 13.8281 13.5198 13.8966 13.5104C13.9952 13.4964 14.0956 13.5115 14.1857 13.554C14.2757 13.5964 14.3514 13.6642 14.4034 13.749C14.4554 13.8339 14.4814 13.9321 14.4783 14.0316C14.4752 14.1311 14.443 14.2275 14.3858 14.3089ZM32.8667 32.8667H9.19253C9.3205 32.7142 9.44657 32.5613 9.58629 32.4118C10.1651 31.7964 11.0699 30.9757 11.8679 30.2514C12.4297 29.7927 12.9502 29.2857 13.4235 28.7362C13.4419 28.7051 13.463 28.6757 13.4866 28.6482C13.937 28.2442 15.1141 26.5559 20.0381 19.4902C20.1877 19.2776 20.2847 19.0324 20.3209 18.7749C20.3571 18.5174 20.3315 18.255 20.2463 18.0093C20.1612 17.7636 20.0188 17.5417 19.8309 17.3619C19.643 17.1821 19.4151 17.0496 19.166 16.9752L19.2949 16.7925C19.4476 16.5814 19.5473 16.3367 19.5857 16.079C19.6242 15.8214 19.6001 15.5582 19.5156 15.3118C19.4311 15.0653 19.2886 14.8428 19.1002 14.6629C18.9117 14.483 18.6828 14.351 18.4327 14.2781L18.7653 13.8075C18.8903 13.631 18.9793 13.4316 19.0272 13.2207C19.075 13.0098 19.0808 12.7915 19.0443 12.5783C19.0077 12.3651 18.9295 12.1612 18.814 11.9783C18.6986 11.7954 18.5483 11.6371 18.3716 11.5123C18.1949 11.3876 17.9953 11.2989 17.7843 11.2513C17.5734 11.2038 17.3551 11.1983 17.1419 11.2351C16.9288 11.272 16.7251 11.3506 16.5423 11.4663C16.3596 11.5819 16.2014 11.7325 16.077 11.9094L15.2817 13.0379C15.1983 12.9222 15.1001 12.8179 14.9896 12.7279C14.8147 12.589 14.6133 12.4874 14.3978 12.429C14.1823 12.3707 13.9571 12.3569 13.7361 12.3886C13.5151 12.4202 13.3028 12.4966 13.1124 12.6131C12.9219 12.7296 12.7571 12.8837 12.6283 13.066L12.4141 13.3687C11.5143 14.6416 10.6146 15.9157 9.71478 17.1911C9.37308 17.0682 9.00372 17.0438 8.64881 17.1206C8.29391 17.1975 7.96775 17.3726 7.70754 17.6259L5.08893 20.1991C4.79549 20.4773 4.55263 20.8045 4.37119 21.1658C3.47319 23.341 2.38992 25.4351 1.13333 27.4247V1.13333H32.8667V32.8667Z" fill="black"/>
  <path d="M2.83327 5.66666H31.1666C31.3169 5.66666 31.461 5.60696 31.5673 5.50069C31.6736 5.39441 31.7333 5.25028 31.7333 5.09999C31.7333 4.9497 31.6736 4.80557 31.5673 4.6993C31.461 4.59303 31.3169 4.53333 31.1666 4.53333H2.83327C2.68298 4.53333 2.53885 4.59303 2.43257 4.6993C2.3263 4.80557 2.2666 4.9497 2.2666 5.09999C2.2666 5.25028 2.3263 5.39441 2.43257 5.50069C2.53885 5.60696 2.68298 5.66666 2.83327 5.66666Z" fill="black"/>
  <path d="M2.83327 10.1997H31.1666C31.3169 10.1997 31.461 10.14 31.5673 10.0338C31.6736 9.9275 31.7333 9.78336 31.7333 9.63307C31.7333 9.48278 31.6736 9.33865 31.5673 9.23238C31.461 9.12611 31.3169 9.06641 31.1666 9.06641H2.83327C2.68298 9.06641 2.53885 9.12611 2.43257 9.23238C2.3263 9.33865 2.2666 9.48278 2.2666 9.63307C2.2666 9.78336 2.3263 9.9275 2.43257 10.0338C2.53885 10.14 2.68298 10.1997 2.83327 10.1997Z" fill="black"/>
  <path d="M2.83327 14.7329H10.2741C10.4244 14.7329 10.5685 14.6732 10.6748 14.567C10.7811 14.4607 10.8408 14.3166 10.8408 14.1663C10.8408 14.016 10.7811 13.8719 10.6748 13.7656C10.5685 13.6593 10.4244 13.5996 10.2741 13.5996H2.83327C2.68298 13.5996 2.53885 13.6593 2.43257 13.7656C2.3263 13.8719 2.2666 14.016 2.2666 14.1663C2.2666 14.3166 2.3263 14.4607 2.43257 14.567C2.53885 14.6732 2.68298 14.7329 2.83327 14.7329Z" fill="black"/>
  <path d="M31.1667 13.5996H21.26C21.1097 13.5996 20.9656 13.6593 20.8593 13.7656C20.7531 13.8719 20.6934 14.016 20.6934 14.1663C20.6934 14.3166 20.7531 14.4607 20.8593 14.567C20.9656 14.6732 21.1097 14.7329 21.26 14.7329H31.1667C31.317 14.7329 31.4612 14.6732 31.5674 14.567C31.6737 14.4607 31.7334 14.3166 31.7334 14.1663C31.7334 14.016 31.6737 13.8719 31.5674 13.7656C31.4612 13.6593 31.317 13.5996 31.1667 13.5996Z" fill="black"/>
  <path d="M31.1665 18.1328H23.2332C23.0829 18.1328 22.9387 18.1925 22.8325 18.2988C22.7262 18.4051 22.6665 18.5492 22.6665 18.6995C22.6665 18.8498 22.7262 18.9939 22.8325 19.1002C22.9387 19.2064 23.0829 19.2661 23.2332 19.2661H31.1665C31.3168 19.2661 31.4609 19.2064 31.5672 19.1002C31.6735 18.9939 31.7332 18.8498 31.7332 18.6995C31.7332 18.5492 31.6735 18.4051 31.5672 18.2988C31.4609 18.1925 31.3168 18.1328 31.1665 18.1328Z" fill="black"/>
  <path d="M31.1666 22.666H20.9666C20.8163 22.666 20.6721 22.7257 20.5659 22.832C20.4596 22.9383 20.3999 23.0824 20.3999 23.2327C20.3999 23.383 20.4596 23.5271 20.5659 23.6334C20.6721 23.7396 20.8163 23.7993 20.9666 23.7993H31.1666C31.3169 23.7993 31.461 23.7396 31.5673 23.6334C31.6735 23.5271 31.7332 23.383 31.7332 23.2327C31.7332 23.0824 31.6735 22.9383 31.5673 22.832C31.461 22.7257 31.3169 22.666 31.1666 22.666Z" fill="black"/>
  <path d="M31.1667 27.1992H17.5667C17.4164 27.1992 17.2722 27.2589 17.166 27.3652C17.0597 27.4715 17 27.6156 17 27.7659C17 27.9162 17.0597 28.0603 17.166 28.1666C17.2722 28.2729 17.4164 28.3326 17.5667 28.3326H31.1667C31.317 28.3326 31.4611 28.2729 31.5674 28.1666C31.6736 28.0603 31.7333 27.9162 31.7333 27.7659C31.7333 27.6156 31.6736 27.4715 31.5674 27.3652C31.4611 27.2589 31.317 27.1992 31.1667 27.1992Z" fill="black"/>
</svg>