<svg xmlns="http://www.w3.org/2000/svg" width="32" height="44" viewBox="0 0 32 44" fill="none">
  <path d="M24.4657 16.1344C24.4657 11.5379 20.6683 7.79883 16 7.79883C11.3316 7.79883 7.53418 11.5379 7.53418 16.1344C7.53418 20.7309 11.3316 24.4699 16 24.4699C20.6683 24.4699 24.4657 20.7309 24.4657 16.1344ZM8.98442 16.1344C8.98442 12.3254 12.1314 9.22676 16 9.22676C19.8685 9.22676 23.0155 12.3254 23.0155 16.1344C23.0155 19.9434 19.8685 23.042 16 23.042C12.1314 23.042 8.98442 19.9434 8.98442 16.1344Z" fill="black"/>
  <path d="M16.5574 42.9637C17.1875 42.2183 32.0003 24.6041 32.0003 16.1364C32.0003 7.44964 24.8231 0.382812 16.0005 0.382812C7.17797 0.382812 0 7.44964 0 16.1364C0 24.6034 14.8128 42.2176 15.4429 42.9637C15.5807 43.1272 15.7851 43.2207 16.0005 43.2207C16.2159 43.2207 16.4189 43.1265 16.5574 42.9637ZM1.45024 16.1364C1.45024 8.23714 7.97705 1.81074 15.9998 1.81074C24.0225 1.81074 30.5493 8.23714 30.5493 16.1364C30.5493 23.2068 18.7299 38.0437 15.9998 41.3772C13.269 38.0445 1.45024 23.2068 1.45024 16.1364Z" fill="black"/>
</svg>