<svg xmlns="http://www.w3.org/2000/svg" width="36" height="30" viewBox="0 0 36 30" fill="none">
  <path d="M33.7164 4.0344H12.85V0.5472C12.85 0.2436 12.6052 0 12.3024 0H5.7108C5.4084 0 5.1636 0.2436 5.1636 0.5472V4.0344H2.2856C1.0252 4.0344 0 5.0588 0 6.318V27.3232C0 28.5824 1.0252 29.6088 2.2856 29.6088H33.7164C34.9756 29.6088 36 28.5828 36 27.3232V6.318C36 5.0588 34.9756 4.0344 33.7164 4.0344ZM6.2584 1.0948H11.7552V4.0348H6.2584V1.0948ZM34.9052 27.3232C34.9052 27.9796 34.372 28.514 33.7164 28.514H2.2856C1.6284 28.514 1.0944 27.9796 1.0944 27.3232V6.318C1.0944 5.6616 1.6284 5.1292 2.2856 5.1292H33.7164C34.372 5.1292 34.9052 5.6616 34.9052 6.318V27.3232Z" fill="black"/>
  <path d="M23.6767 9.46094C19.6191 9.46094 16.3179 12.7621 16.3179 16.8201C16.3179 20.8781 19.6191 24.1797 23.6767 24.1797C27.7343 24.1797 31.0355 20.8785 31.0355 16.8201C31.0355 12.7617 27.7343 9.46094 23.6767 9.46094ZM23.6767 23.0853C20.2227 23.0853 17.4123 20.2737 17.4123 16.8205C17.4123 13.3653 20.2223 10.5557 23.6767 10.5557C27.1311 10.5557 29.9411 13.3649 29.9411 16.8205C29.9411 20.2733 27.1311 23.0853 23.6767 23.0853Z" fill="black"/>
  <path d="M5.71077 9.46289C5.40837 9.46289 5.16357 9.70649 5.16357 10.0101V23.9273C5.16357 24.2289 5.40837 24.4749 5.71077 24.4749C6.01317 24.4749 6.25837 24.2289 6.25837 23.9273V10.0105C6.25837 9.70689 6.01357 9.46289 5.71077 9.46289Z" fill="black"/>
  <path d="M23.6771 15.0059C22.6767 15.0059 21.8623 15.8207 21.8623 16.8211C21.8623 17.8219 22.6767 18.6367 23.6771 18.6367C24.6771 18.6367 25.4915 17.8219 25.4915 16.8211C25.4915 15.8207 24.6771 15.0059 23.6771 15.0059ZM23.6771 17.5419C23.2799 17.5419 22.9571 17.2191 22.9571 16.8211C22.9571 16.4235 23.2799 16.1007 23.6771 16.1007C24.0739 16.1007 24.3967 16.4235 24.3967 16.8211C24.3967 17.2191 24.0739 17.5419 23.6771 17.5419Z" fill="black"/>
</svg>