<svg xmlns="http://www.w3.org/2000/svg" width="38" height="38" viewBox="0 0 38 38" fill="none">
  <path d="M18.9365 8.04285C22.4198 8.04285 24.8898 10.1962 24.8898 13.2362C24.8898 15.9595 23.1798 17.3528 21.4065 19.0628C19.6332 20.7095 19.4432 21.1528 19.4432 23.9395H18.3032V23.6228C18.3032 20.8995 18.7465 20.0762 20.6465 18.3028C22.1032 16.9095 23.7498 15.4528 23.7498 13.2995C23.7498 10.8295 21.7865 9.11951 18.9998 9.11951C15.3265 9.11951 13.8065 12.0328 13.8698 14.9462H12.6665C12.6665 11.2728 14.5665 8.04285 18.9365 8.04285ZM19.4432 29.1328H18.1132V26.1562H19.4432V29.1328Z" fill="black"/>
  <path d="M19 1.26667C28.7533 1.26667 36.7333 9.24667 36.7333 19C36.7333 28.7533 28.7533 36.7333 19 36.7333C9.24667 36.7333 1.26667 28.7533 1.26667 19C1.26667 9.24667 9.24667 1.26667 19 1.26667ZM19 0C8.48667 0 0 8.48667 0 19C0 29.5133 8.48667 38 19 38C29.5133 38 38 29.5133 38 19C38 8.48667 29.5133 0 19 0Z" fill="black"/>
</svg>